<?xml version="1.0" encoding="UTF-8" standalone="no" ?>
<!DOCTYPE svg PUBLIC "-//W3C//DTD SVG 1.1//EN" "http://www.w3.org/Graphics/SVG/1.1/DTD/svg11.dtd">
<svg xmlns="http://www.w3.org/2000/svg" xmlns:xlink="http://www.w3.org/1999/xlink" version="1.1" width="1280" height="1024" viewBox="0 0 1280 1024" xml:space="preserve">
<desc>Created with Fabric.js 5.3.0</desc>
<defs>
</defs>
<g transform="matrix(1 0 0 1 640 512)" id="background-logo"  >
<rect style="stroke: none; stroke-width: 0; stroke-dasharray: none; stroke-linecap: butt; stroke-dashoffset: 0; stroke-linejoin: miter; stroke-miterlimit: 4; fill: rgb(255,255,255); fill-opacity: 0; fill-rule: nonzero; opacity: 1;"  paint-order="stroke"  x="-640" y="-512" rx="0" ry="0" width="1280" height="1024" />
</g>
<g transform="matrix(1.267012623433973 0 0 1.267012623433973 261.0043749999999 512)" id="logo-logo"  >
<g style=""  paint-order="stroke"   >
		<g transform="matrix(-1.5046158532093707 0 0 -1.5046158532093705 0 0)"  >
<g style=""  paint-order="stroke"   >
		<g transform="matrix(1 0 0 1 0 0)"  >
<path style="stroke: none; stroke-width: 1; stroke-dasharray: none; stroke-linecap: butt; stroke-dashoffset: 0; stroke-linejoin: miter; stroke-miterlimit: 4; fill: rgb(141,22,22); fill-rule: nonzero; opacity: 1;"  paint-order="stroke"  transform=" translate(-78.61978379461732, -60.93998946650237)" d="M 2.87 99.33 C 5.667728774393181 98.6351784984807 8.358741329382234 97.56550100787254 10.869999999999994 96.14999999999999 C 11.48 95.8 12.090000000000002 95.42999999999999 12.680000000000001 95.03999999999999 C 13.030000000000001 94.8 13.46 94.33 13.88 94.24999999999999 C 14.480888813938856 94.27409039490931 15.071571255463665 94.41327418860193 15.620000000000001 94.65999999999998 C 16.23 94.80999999999999 16.85 94.93999999999998 17.470000000000002 95.06999999999998 C 15.571494257498273 97.14655412304464 13.1559626217416 98.68214209148995 10.470000000000002 99.51999999999998 C 9.270000000000003 99.89999999999998 8.020000000000003 100.13999999999999 6.8400000000000025 100.58999999999997 C 6.230000000000002 100.81999999999998 5.680000000000002 100.45999999999998 5.080000000000003 100.22999999999998 C 4.480000000000003 99.99999999999997 3.61 99.64 2.87 99.33 Z M 37.36 72.8 C 37.67 72.72 38.87 72.57 39.04 72.21 C 39.21 71.85 38.28 71.58999999999999 38.04 71.5 C 34.839999999999996 70.31 31.48 69.5 28.22 68.5 C 26.3 75.36 26.84 82.72 28 89.64 C 27.9 83.35 30.47 74.63 37.36 72.8 Z M 42.36 74.2 C 44.83 77.57000000000001 44.63 81.54 43.5 85.39 C 42.04313247030686 89.80295425271785 39.845012112509885 93.93542052537616 37 97.61 C 34.74050760805822 100.70408466454846 32.16310950639174 103.5529642307598 29.310000000000002 106.11 C 25.89711338126504 109.07397834096082 22.214398054760405 111.71214168394779 18.310000000000006 113.99000000000001 C 16.018054657473513 115.49252910030067 13.57052775537029 116.74311476397808 11.01 117.72 C 10.481978806390345 117.91275299335415 9.940524893242733 118.06649916622322 9.389999999999997 118.17999999999999 C 9.130100443234882 118.20133338409435 8.872497684802221 118.24482475889467 8.619999999999994 118.30999999999999 C 8.299493670209827 118.51131690190928 8.001169036743292 118.74595425407396 7.729999999999993 119.00999999999999 Q 5.839999999999998 120.46 3.869999999999998 121.77999999999999 C 14.813328432699302 120.0147669654428 24.942855711741156 114.90808804062928 32.869999999999976 107.16 C 36.55797410234171 103.54498788772561 39.71291488156102 99.42369918573581 42.24 94.91999999999997 C 44.124582342314 91.72298990980916 45.602678385532485 88.30321315527183 46.639999999999986 84.74 C 47.32724065938898 82.63764140314466 47.37249925324661 80.37819314055987 46.769999999999996 78.24999999999999 C 46.08026063226174 76.2480363034907 44.43095791330067 74.72647001378856 42.38 74.2 Z M 25 96.64 C 23.28 96.31 21.55 95.95 19.83 95.64 C 19.40100603092072 95.48645831634937 18.953972527724154 95.38898484572756 18.5 95.35 C 18.16 95.35 17.83 95.89 17.56 96.16999999999999 C 16.978415282683997 96.76324897335779 16.349688901742788 97.30836812279085 15.679999999999998 97.79999999999998 C 14.433027881364211 98.71458002662065 13.067096276243191 99.45474000969115 11.620000000000001 99.99999999999999 C 10.32 100.48999999999998 8.96 100.76999999999998 7.620000000000001 101.18999999999998 C 11.565492492800068 102.51922888919819 15.647712071136908 103.40141767235562 19.789999999999964 103.81999999999998 C 19.07729512268436 106.01839007059448 18.046347117647397 108.10050074743384 16.730000000000004 110 C 14.755062376098435 112.66303317014038 12.465078630543383 115.07725357051292 9.909999999999993 117.19 C 13.280000000000001 116.25 16.34 114.24 19.28 112.42 C 21.822077984776406 110.87870537490411 24.266715091712193 109.18215394003612 26.600000000000023 107.33999999999999 C 31.100704474982344 103.67977266534793 35.004115370478075 99.34115001054455 38.17 94.48 C 40.02585719994543 91.77643105303738 41.5123306606573 88.83711475289672 42.59 85.74 C 43.48875100038166 83.34822889302599 43.75735211879406 80.76552583136831 43.370000000000005 78.24000000000001 C 43.05588232718325 76.84077580049609 42.43417465910607 75.52904094037721 41.550000000000004 74.4 C 41.18000000000001 73.91000000000001 40.980000000000004 73.89 40.36000000000001 73.84 C 39.98708439711524 73.8150237952604 39.61291560288477 73.8150237952604 39.24 73.84 C 38.23927714455541 73.88047515955037 37.25960297268472 74.13990107265899 36.37000000000001 74.60000000000001 C 34.0050017501847 76.00305478195774 32.177882230541805 78.15757722130543 31.180000000000007 80.72000000000001 C 28.80559186490455 86.02489619838573 28.429120851829545 92.00936466094596 30.120000000000015 97.57000000000004 C 28.41 97.27 26.7 97 25 96.64 Z M 124.55 75.33 C 126.40650086088807 77.17578223517606 127.74760110121974 79.47530372695299 128.44 82 C 129.26851382021488 84.46804141807415 129.68080487033805 87.05668850327379 129.66 89.65999999999998 C 130.79999999999998 82.74 131.32999999999998 75.38 129.41 68.55 C 127.08 69.25 124.72999999999999 69.92999999999999 122.41 70.61999999999999 C 121.56 70.88 120.71 71.13 119.86999999999999 71.41999999999999 C 119.57999999999998 71.51999999999998 118.86999999999999 71.67999999999999 118.66 71.96999999999998 C 118.36 72.44999999999999 119.5 72.60999999999999 119.82 72.69999999999999 C 121.59260241894498 73.1726284441508 123.2208936732892 74.07608962535866 124.55999999999999 75.32999999999998 Z M 110.55 79.75 C 110.05 83.14 111.55 86.75 112.89 89.84 C 114.28322488436214 92.98395826401332 115.95664480908566 95.99611412851567 117.89 98.84 C 126.18341878636141 111.15264376790634 139.22559108161346 119.4597829548544 153.89 121.77000000000001 C 152.73999999999998 121.00000000000001 151.6 120.19000000000001 150.48999999999998 119.35000000000001 C 150.0406430220634 118.91096937976187 149.52415994193524 118.54639308790671 148.95999999999998 118.27000000000001 C 148.51 118.14000000000001 148.02999999999997 118.10000000000001 147.57999999999998 117.97000000000001 C 145.37658592052728 117.27468193236056 143.26989104361337 116.30365351222004 141.30999999999997 115.08000000000001 C 137.2681039290436 112.83721015012985 133.43308051224443 110.24037055899879 129.84999999999997 107.32 C 126.82509350107803 104.78219548434078 124.08258273299326 101.92569282614004 121.66999999999996 98.80000000000003 C 118.84613124586417 95.3210790179275 116.54829793935019 91.44643341310189 114.84999999999997 87.30000000000003 C 113.21999999999997 82.98000000000002 112.44999999999996 78.14000000000001 115.34999999999997 74.19000000000001 C 112.74561365040879 74.86696237278323 110.82614166219278 77.0765408933797 110.52 79.75 Z M 131.76 96.81 C 130.35999999999999 97.08 128.95 97.32000000000001 127.55 97.55 C 129.02568400645575 92.63860177594887 128.89959639969626 87.38495149430346 127.19 82.54999999999998 C 126.41628272812385 79.95031469997974 124.95482832200788 77.60784168024779 122.96 75.77 C 121.7437154723608 74.66457859096123 120.19759881367693 73.98990950353554 118.55999999999999 73.85 C 118.14371021709411 73.82493728663296 117.72628978290587 73.82493728663296 117.30999999999999 73.85 C 116.66999999999999 73.85 116.49999999999999 73.85 116.10999999999999 74.41 C 115.59515280785565 75.06141450772732 115.1619346892164 75.77336986549106 114.81999999999998 76.53 C 113.99910535917753 78.66868382880602 113.85939462904354 81.00883855855047 114.41999999999997 83.23 C 115.1231820021619 86.36479326148189 116.33956891237692 89.3618354541506 118.01999999999998 92.10000000000001 C 120.97669726481793 97.17801730644496 124.71215991997582 101.76045478223936 129.09 105.68000000000002 C 131.5818506748413 107.9030533422744 134.25815060246094 109.91027828798914 137.08999999999995 111.67999999999998 C 140.42999999999998 113.78 143.90999999999997 116.18 147.74999999999997 117.26 C 145.1801279282394 115.12735301578498 142.8798270544911 112.6893698999583 140.9 110 C 139.56700892799026 108.08069084136751 138.5257057217244 105.97449503581356 137.81 103.75 C 141.95827468306396 103.33938412071056 146.04726645588002 102.4638903941273 150.00000000000003 101.13999999999999 C 148.65 100.71 147.25 100.42 145.92 99.91 C 143.6464506919353 99.04133511862062 141.596286547452 97.67455902229841 139.92 95.91 C 139.77812126921646 95.71163856083476 139.61368651301652 95.53042474787972 139.42999999999998 95.36999999999999 C 139.2 95.24 139.01 95.36999999999999 138.73 95.36999999999999 L 137.39 95.64999999999999 C 135.48 96.07 133.61 96.47 131.73 96.81 Z M 78.61 22.47 C 96.495544247715 22.466687154561054 113.32410573516673 30.94102086748491 123.97101762818664 45.31238027271124 C 134.61792952120658 59.68373967793757 137.82292036212488 78.25099169121543 132.61 95.36000000000001 Q 142.42000000000002 93.44 152.09 90.84 C 152.44 90.75 152.99 90.69 153.09 90.42 C 153.20302629190812 90.03686862922028 153.2602807592063 89.63945526797416 153.26 89.24 C 153.38 88.41 153.48 87.57 153.57 86.74 C 153.73999999999998 85.14999999999999 153.85 83.55 153.91 81.94999999999999 C 154.0166632404267 79.25008606913079 153.98328511338008 76.54645777835304 153.81 73.84999999999998 C 153.20420565202244 64.5515163654237 150.87460720223504 55.44675386516295 146.94 47.000000000000014 C 139.18765737328374 30.49661500360943 125.75121115790454 17.337062527939512 109.08999999999992 9.929999999999964 C 85.2236742283434 -0.6303947812744486 57.593141881111734 1.9039201001409864 36.04610276483071 16.629698486924624 C 14.49906364854968 31.355476873708263 2.1007497313152186 56.17786357844088 3.269999999999996 82.25 C 3.34 83.85 3.46 85.44 3.63 87.03 C 3.71 87.82000000000001 3.81 88.6 3.92 89.38 C 3.92 89.64 3.92 90.38 4.1 90.55 C 4.279999999999999 90.72 5.1899999999999995 90.85 5.43 90.92 C 8.62 91.78 11.83 92.58 15.04 93.32000000000001 C 18.25 94.06000000000002 21.4 94.72000000000001 24.6 95.32000000000001 C 19.39549318892861 78.21257154362306 22.604198743883092 59.650928764892846 33.249695146244406 45.28345139815038 C 43.89519154860572 30.915974031407927 60.7184174129654 22.44192862792302 78.6 22.440000000000012 Z M 78.61 0.1 C 56.0347408809198 0.08348438166264738 34.54312453115736 9.77832033192052 19.614438300756717 26.71280953276473 C 4.685752070356074 43.64729873360894 -2.2374144380803216 66.18502672301045 0.6099999999999994 88.57999999999997 C 0.6134981643560811 88.88374592698774 0.6537918720673748 89.18594873482246 0.7299999999999986 89.48 C 0.8699999999999994 89.72 1.1399999999999995 89.74000000000001 1.4499999999999993 89.82000000000001 L 3.249999999999999 90.33000000000001 C -1.3695273791801208 60.06722044557251 12.57996128496367 29.979851274632672 38.661715043459424 13.951190056425375 C 64.74346880195517 -2.077471161781915 97.88747356934199 -0.9316240520261374 122.80000000000001 16.860000000000028 C 129.44292268430956 21.618643921137036 135.28602792544314 27.404364535407947 140.11 34.000000000000014 C 150.2325399007044 47.789258896543984 155.39543331997623 64.59597474398919 154.76000000000002 81.68999999999996 C 154.66014128646103 84.59337646135062 154.38967466402988 87.4883710495949 153.95000000000002 90.36 L 156.04000000000002 89.77 C 156.53000000000003 89.64 156.48000000000002 89.53 156.54000000000002 89.06 C 156.60000000000002 88.59 156.65000000000003 88.16 156.70000000000002 87.72 C 156.88000000000002 86.16 157.01000000000002 84.6 157.10000000000002 83.03 Q 157.31000000000003 79.03 157.10000000000002 75.09 C 156.89726269294843 70.65290578778173 156.3219037552956 66.24070556240929 155.38 61.89999999999994 C 147.77704063148897 27.01829034566618 117.59973304398846 1.6562046087511817 81.93 0.1700000000000017 C 80.82 0.12 79.71 0.1 78.61 0.1 Z M 131.74 78.71 C 131.73803415205185 84.61545377059507 130.75116239467738 90.47922945225503 128.82000000000002 96.06 L 130.57000000000002 95.74000000000001 C 130.86873589642812 95.7225463346559 131.1642395107422 95.66881840478061 131.45000000000002 95.58000000000001 C 131.83 95.4 131.77 95.42000000000002 131.91000000000003 94.98000000000002 C 132.24000000000004 93.88000000000002 132.53000000000003 92.78000000000002 132.79000000000002 91.67000000000002 C 133.30007616516374 89.50794124881244 133.68075199505518 87.31738559610366 133.93 85.11 C 134.35568007289837 81.12132522027893 134.35568007289837 77.09867477972108 133.93 73.11 C 133.24880678461213 66.45718850503813 131.3684677728094 59.98272390764163 128.38 53.99999999999998 C 115.71354207318629 28.74747067897889 86.14056991452429 16.98631155880156 59.5908897894721 26.642598566662365 C 33.04120966441991 36.29888557452317 17.933868514139718 64.31055795437545 24.450000000000017 91.80000000000004 C 24.7 92.86 24.99 93.91 25.3 94.95 C 25.44 95.4 25.38 95.39 25.77 95.57000000000001 C 26.05657533793572 95.65730844609635 26.351525455616702 95.7142874461029 26.65 95.74000000000001 L 28.4 96.06 C 21.670997211637165 76.59225834205733 26.800655760573015 54.9893642486632 41.56320960116936 40.6248437940958 C 56.32576344176571 26.260323339528412 78.06076223463674 21.72289482626573 97.33735949094643 28.981354856067114 C 116.61395674725614 36.2398148858685 129.95819868729174 53.98607187388906 131.58 74.51999999999997 C 131.68 75.92 131.74 77.31 131.74 78.71 Z" stroke-linecap="round" />
</g>
</g>
</g>
</g>
</g>
<g transform="matrix(1.9211538461538462 0 0 1.9211538461538462 819.1956249999997 484.02744742195364)" id="text-logo"  >
<g style=""  paint-order="stroke"   >
		<g transform="matrix(1 0 0 1 0 0)" id="text-logo-path-0"  >
<path style="stroke: none; stroke-width: 0; stroke-dasharray: none; stroke-linecap: butt; stroke-dashoffset: 0; stroke-linejoin: miter; stroke-miterlimit: 4; fill: rgb(141,22,22); fill-rule: nonzero; opacity: 1;"  paint-order="stroke"  transform=" translate(-183.385, 23.76)" d="M 1.32 -0.66 L 1.32 0 L 19.93 0 L 19.93 -0.66 C 17.56 -0.66 14.92 -1.12 14.92 -3.63 L 14.92 -14.45 C 16.1 -16.37 18.28 -17.89 20.79 -19.27 C 25.15 -19.73 29.44 -17.62 29.44 -11.29 L 29.44 -7.92 C 29.44 -1.78 34.39 0.66 39.67 0.66 C 42.83 0.66 44.55 -0.2 45.8 -1.98 C 45.34 -2.05 44.81 -2.44 44.35 -3.04 C 44.22 -1.72 43.1 -0.66 41.65 -0.66 C 38.87 -0.66 38.68 -5.28 38.68 -7.85 L 38.68 -12.67 C 38.68 -19.87 33.2 -22.37 27.98 -22.37 C 27.72 -22.37 27.39 -22.37 27.06 -22.31 C 33 -25.15 38.68 -28.25 38.68 -34.12 C 38.68 -41.58 30.95 -45.54 22.84 -45.54 L 1.32 -45.54 L 1.32 -44.88 C 3.7 -44.88 6.34 -44.42 6.34 -41.91 L 6.34 -3.63 C 6.34 -1.12 3.7 -0.66 1.32 -0.66 Z M 14.92 -18.48 L 14.92 -40.85 C 16.96 -42.44 18.88 -42.9 20.92 -42.9 C 25.94 -42.9 29.5 -38.41 29.5 -34.12 C 29.5 -24.95 19.87 -22.97 14.92 -18.48 Z M 76.05 0.66 C 89.19 0.66 98.82 -8.38 98.95 -22.84 C 99.15 -36.43 90.64 -46.2 76.58 -46.2 C 63.45 -46.2 53.81 -37.16 53.74 -22.84 C 53.48 -9.11 61.99 0.66 76.05 0.66 Z M 63.78 -22.77 C 62.26 -34.39 66.09 -42.7 74.01 -42.7 C 81.33 -42.7 87.47 -35.24 88.99 -22.77 C 90.44 -11.02 86.61 -2.71 78.69 -2.71 C 71.3 -2.71 65.1 -10.23 63.78 -22.77 Z M 142.27 -41.91 L 142.27 -18.68 C 142.27 -13.6 137.72 -5.35 132.57 -5.35 C 129.8 -5.35 125.11 -5.54 125.11 -14.72 L 125.11 -42.9 C 125.11 -44.68 125.11 -46.2 125.77 -48.18 C 123.26 -46.46 118.51 -45.61 115.41 -45.54 L 110.2 -45.54 L 110.2 -44.88 C 112.57 -44.88 115.21 -44.42 115.21 -41.91 L 115.21 -12.8 C 115.21 -2.71 122.01 0.66 127.22 0.66 C 134.88 0.66 139.96 -5.41 142.27 -10.82 L 142.27 -9.24 C 142.27 -3.3 146.5 -0.07 151.97 0 L 157.19 0.07 L 157.19 -0.59 C 154.81 -0.66 152.17 -1.12 152.17 -3.63 L 152.17 -41.91 C 152.17 -44.42 154.81 -44.88 157.19 -44.88 L 157.19 -45.54 L 137.26 -45.54 L 137.26 -44.88 C 139.63 -44.88 142.27 -44.42 142.27 -41.91 Z M 176.94 -0.66 L 176.94 0 L 196.21 0 L 196.21 -0.66 C 193.84 -0.66 191.2 -1.12 191.2 -3.63 L 191.2 -43.23 C 197.01 -43.23 201.43 -38.61 205.78 -38.61 C 205.65 -41.58 205.52 -43.23 208.03 -46.2 C 206.18 -46.2 203.87 -45.54 202.09 -45.54 L 171.07 -45.54 C 169.29 -45.54 166.98 -46.2 165.13 -46.2 C 167.64 -43.23 167.5 -41.58 167.37 -38.61 C 171.73 -38.61 176.15 -43.23 181.96 -43.23 L 181.96 -3.63 C 181.96 -1.12 179.32 -0.66 176.94 -0.66 Z M 219.27 -0.66 L 219.27 0 L 253.98 0 L 254.25 -0.86 L 257.42 -10.89 L 256.16 -11.29 C 254.51 -6.07 252.53 -2.31 247.12 -2.31 L 234.18 -2.31 L 234.18 -19.8 C 236.1 -21.78 238.67 -22.9 241.58 -22.9 C 243.03 -22.9 244.74 -22.77 245.93 -22.04 C 246.46 -24.35 248.31 -27.46 251.48 -29.77 L 245.07 -29.77 C 241.84 -29.77 239 -28.38 237.02 -25.87 L 234.18 -22.37 L 234.18 -43.23 L 236.36 -43.23 C 245.47 -43.23 245.93 -37.29 252.93 -37.29 C 252.8 -40.26 253.98 -42.57 256.49 -45.54 L 219.27 -45.54 L 219.27 -44.88 C 221.64 -44.88 224.28 -44.42 224.28 -41.91 L 224.28 -3.63 C 224.28 -1.12 221.64 -0.66 219.27 -0.66 Z M 307.82 -2.38 C 303.39 -2.38 300.29 -10.69 300.29 -23.3 C 301.88 -24.68 303.13 -26.73 306.36 -26.73 C 311.12 -26.73 313.43 -23.89 313.43 -16.1 C 313.43 -8.18 312.04 -2.38 307.82 -2.38 Z M 290.46 -22.18 C 290.33 -8.45 297.39 0.66 307.82 0.66 C 315.14 0.66 322.34 -3.83 322.34 -14.92 C 322.34 -22.9 316.33 -30.16 305.31 -30.16 C 303.13 -30.16 301.74 -29.83 300.36 -29.57 C 300.69 -37.82 301.81 -43.23 305.64 -43.23 C 312.44 -43.23 311.91 -37.29 316.46 -37.29 C 316.33 -40.26 317.52 -42.57 320.03 -45.54 L 307.09 -45.54 C 298.44 -45.54 290.52 -36.5 290.46 -22.18 Z M 350.93 -2.38 C 346.51 -2.38 343.41 -10.69 343.41 -23.3 C 344.99 -24.68 346.25 -26.73 349.48 -26.73 C 354.23 -26.73 356.54 -23.89 356.54 -16.1 C 356.54 -8.18 355.16 -2.38 350.93 -2.38 Z M 333.58 -22.18 C 333.44 -8.45 340.51 0.66 350.93 0.66 C 358.26 0.66 365.45 -3.83 365.45 -14.92 C 365.45 -22.9 359.45 -30.16 348.43 -30.16 C 346.25 -30.16 344.86 -29.83 343.48 -29.57 C 343.81 -37.82 344.93 -43.23 348.76 -43.23 C 355.55 -43.23 355.03 -37.29 359.58 -37.29 C 359.45 -40.26 360.64 -42.57 363.14 -45.54 L 350.21 -45.54 C 341.56 -45.54 333.64 -36.5 333.58 -22.18 Z" stroke-linecap="round" />
</g>
</g>
</g>
<g transform="matrix(0.9127213355734365 1.6904945620086322 -1.6904945620086325 0.9127213355734366 151.9880261235466 537.561714660564)" id="tagline-7dfcb3ca-2c9d-4f44-ba55-5f136b1dd3e1-logo-0"  >
<g style=""  paint-order="stroke"   >
		<g transform="matrix(1 0 0 1 0 0)" id="587c01de-41f7-4cfe-8add-3685746e7841-path-0"  >
<path style="stroke: none; stroke-width: 0; stroke-dasharray: none; stroke-linecap: butt; stroke-dashoffset: 0; stroke-linejoin: miter; stroke-miterlimit: 4; fill: rgb(254,251,251); fill-rule: nonzero; opacity: 1;"  paint-order="stroke"  transform=" translate(-3.48, 4.555000000000001)" d="M 3.22 -0.14 C 2.47 -0.14 1.72 -0.4 1.09 -0.88 C 0.66 -1.29 0.9 -1.64 1.14 -2.02 L 0.29 -1.27 C 1.05 -0.4 2.15 0.12 3.22 0.12 C 5.21 0.12 6.67 -0.77 6.67 -2.55 C 6.67 -5.32 1.86 -5.08 1.86 -7.33 C 1.86 -8.23 2.47 -8.97 3.54 -8.97 C 4.03 -8.97 4.5 -8.89 4.91 -8.74 C 5.43 -8.45 5.28 -8.07 5.12 -7.66 L 5.67 -8.37 L 5.8 -8.55 C 5.16 -8.98 4.39 -9.23 3.54 -9.23 C 1.63 -9.23 0.49 -8.24 0.49 -6.92 C 0.49 -4.08 5.3 -4.25 5.3 -2.05 C 5.3 -1.05 4.55 -0.14 3.22 -0.14 Z" stroke-linecap="round" />
</g>
</g>
</g>
<g transform="matrix(1.2547175618093853 1.4548250550079302 -1.4548250550079302 1.2547175618093853 167.18387434847892 559.6340352559574)" id="tagline-7dfcb3ca-2c9d-4f44-ba55-5f136b1dd3e1-logo-1"  >
<g style=""  paint-order="stroke"   >
		<g transform="matrix(1 0 0 1 0 0)" id="1e211b4b-ed75-4ffd-831d-1b74dedf5c66-path-0"  >
<path style="stroke: none; stroke-width: 0; stroke-dasharray: none; stroke-linecap: butt; stroke-dashoffset: 0; stroke-linejoin: miter; stroke-miterlimit: 4; fill: rgb(254,251,251); fill-rule: nonzero; opacity: 1;"  paint-order="stroke"  transform=" translate(-1.795, 4.55)" d="M 0.29 0 L 3.3 0 C 2.87 -0.18 2.44 -0.34 2.44 -1.18 L 2.44 -7.92 C 2.44 -8.76 2.87 -8.92 3.3 -9.1 L 0.29 -9.1 C 0.72 -8.92 1.14 -8.76 1.14 -7.92 L 1.14 -1.18 C 1.14 -0.34 0.72 -0.18 0.29 0 Z" stroke-linecap="round" />
</g>
</g>
</g>
<g transform="matrix(1.5535143053892828 1.1302324555340681 -1.1302324555340681 1.553514305389283 188.1201584390638 578.9018806874204)" id="tagline-7dfcb3ca-2c9d-4f44-ba55-5f136b1dd3e1-logo-2"  >
<g style=""  paint-order="stroke"   >
		<g transform="matrix(1 0 0 1 0 -8.8818e-16)" id="c5a95ff1-4130-42b6-9450-730d6c69730d-path-0"  >
<path style="stroke: none; stroke-width: 0; stroke-dasharray: none; stroke-linecap: butt; stroke-dashoffset: 0; stroke-linejoin: miter; stroke-miterlimit: 4; fill: rgb(254,251,251); fill-rule: nonzero; opacity: 1;"  paint-order="stroke"  transform=" translate(-4.265, 4.55)" d="M 6.86 0 L 7.38 0 L 7.38 -7.92 C 7.38 -8.76 7.81 -8.92 8.24 -9.1 L 6.27 -9.1 C 6.7 -8.92 7.12 -8.76 7.12 -7.92 L 7.12 -1.99 L 2.44 -9.1 L 0.29 -9.1 C 0.72 -8.92 1.14 -8.76 1.14 -7.92 L 1.14 -1.18 C 1.14 -0.34 0.72 -0.18 0.29 0 L 2.26 0 C 1.83 -0.18 1.4 -0.34 1.4 -1.18 L 1.4 -8.31 Z" stroke-linecap="round" />
</g>
</g>
</g>
<g transform="matrix(1.7984556748434222 0.6755659007196908 -0.6755659007196908 1.7984556748434222 217.42584761692984 594.6750759201251)" id="tagline-7dfcb3ca-2c9d-4f44-ba55-5f136b1dd3e1-logo-3"  >
<g style=""  paint-order="stroke"   >
		<g transform="matrix(1 0 0 1 0 0)" id="82542241-9e1d-4483-ab55-f77459f9265a-path-0"  >
<path style="stroke: none; stroke-width: 0; stroke-dasharray: none; stroke-linecap: butt; stroke-dashoffset: 0; stroke-linejoin: miter; stroke-miterlimit: 4; fill: rgb(254,251,251); fill-rule: nonzero; opacity: 1;"  paint-order="stroke"  transform=" translate(-4.06, 4.555000000000001)" d="M 4.89 0.12 C 5.97 0.12 7.06 -0.4 7.83 -1.27 L 6.97 -2.02 C 7.18 -1.6 7.36 -1.24 6.72 -0.68 C 6.16 -0.33 5.53 -0.14 4.89 -0.14 C 2.85 -0.14 1.65 -2.02 1.65 -4.56 C 1.65 -7.19 2.93 -8.97 4.76 -8.97 C 5.25 -8.97 5.72 -8.89 6.14 -8.74 C 6.66 -8.45 6.5 -8.07 6.34 -7.66 L 6.89 -8.37 L 7.02 -8.55 C 6.38 -8.98 5.62 -9.23 4.76 -9.23 C 2.15 -9.23 0.29 -7.35 0.29 -4.56 C 0.29 -1.87 2.03 0.12 4.89 0.12 Z" stroke-linecap="round" />
</g>
</g>
</g>
<g transform="matrix(1.9119071417673907 0.1882635967216216 -0.18826359672162163 1.911907141767391 248.86040393600473 602.0088272064929)" id="tagline-7dfcb3ca-2c9d-4f44-ba55-5f136b1dd3e1-logo-4"  >
<g style=""  paint-order="stroke"   >
		<g transform="matrix(1 0 0 1 0 0)" id="7a015493-a383-4018-873f-16286bedbc86-path-0"  >
<path style="stroke: none; stroke-width: 0; stroke-dasharray: none; stroke-linecap: butt; stroke-dashoffset: 0; stroke-linejoin: miter; stroke-miterlimit: 4; fill: rgb(254,251,251); fill-rule: nonzero; opacity: 1;"  paint-order="stroke"  transform=" translate(-3.77, 4.55)" d="M 0.29 0 L 6.51 0 L 7.25 -1.48 C 6.7 -1 6.1 -0.26 4.75 -0.26 L 2.44 -0.26 L 2.44 -4.42 L 4.16 -4.42 C 5.01 -4.42 5.16 -3.99 5.34 -3.56 L 5.34 -5.54 C 5.16 -5.11 5.01 -4.68 4.16 -4.68 L 2.44 -4.68 L 2.44 -8.84 L 4.88 -8.84 C 6.14 -8.84 6.37 -8.2 6.64 -7.55 L 6.64 -9.1 L 0.29 -9.1 C 0.72 -8.92 1.14 -8.76 1.14 -7.92 L 1.14 -1.18 C 1.14 -0.34 0.72 -0.18 0.29 0 Z" stroke-linecap="round" />
</g>
</g>
</g>
<g transform="matrix(0.9933861239886693 -0.11482163849539911 0.11482163849539911 0.9933861239886693 136.94332159799092 311.10409707489634)" id="tagline-7dfcb3ca-2c9d-4f44-ba55-5f136b1dd3e1-logo-5"  >
<g style=""  paint-order="stroke"   >
		<g transform="matrix(1 0 0 1 0 0)" id="86be4aed-1609-44e0-96e5-cd86accb86b0-path-0"  >
<path style="stroke: none; stroke-width: 0; stroke-dasharray: none; stroke-linecap: butt; stroke-dashoffset: 0; stroke-linejoin: miter; stroke-miterlimit: 4; fill: rgb(254,251,251); fill-rule: nonzero; opacity: 1;"  paint-order="stroke"  transform=" translate(0, 0)" d="" stroke-linecap="round" />
</g>
</g>
</g>
<g transform="matrix(1.824403016505629 -0.6019848286766663 0.6019848286766664 1.8244030165056295 299.7765881566673 596.2499055319174)" id="tagline-7dfcb3ca-2c9d-4f44-ba55-5f136b1dd3e1-logo-6"  >
<g style=""  paint-order="stroke"   >
		<g transform="matrix(1 0 0 1 0 0)" id="bdc05369-8106-4398-b7b4-228a3ac50f8f-path-0"  >
<path style="stroke: none; stroke-width: 0; stroke-dasharray: none; stroke-linecap: butt; stroke-dashoffset: 0; stroke-linejoin: miter; stroke-miterlimit: 4; fill: rgb(254,251,251); fill-rule: nonzero; opacity: 1;"  paint-order="stroke"  transform=" translate(-3.215, 4.615)" d="M 0.29 0 L 6.14 0 L 6.14 -1.55 C 5.86 -0.91 5.63 -0.26 4.37 -0.26 L 1.73 -0.26 C 1.92 -3.69 6.03 -4.02 6.03 -6.79 C 6.03 -8.11 4.77 -9.23 2.73 -9.23 C 1.87 -9.23 1.04 -8.74 0.47 -8.16 L 0.6 -7.98 L 1.14 -7.27 C 0.99 -7.68 0.81 -8.11 1.26 -8.49 C 1.69 -8.78 2.2 -8.97 2.73 -8.97 C 3.93 -8.97 4.67 -8.1 4.67 -7.2 C 4.67 -4.95 0.29 -4.38 0.29 0 Z" stroke-linecap="round" />
</g>
</g>
</g>
<g transform="matrix(1.6211927566871642 -1.0308084915525222 1.0308084915525224 1.6211927566871644 327.4866833203689 583.2412953314807)" id="tagline-7dfcb3ca-2c9d-4f44-ba55-5f136b1dd3e1-logo-7"  >
<g style=""  paint-order="stroke"   >
		<g transform="matrix(1 0 0 1 0 -8.8818e-16)" id="96a19ece-7729-41fd-8f16-861422453d78-path-0"  >
<path style="stroke: none; stroke-width: 0; stroke-dasharray: none; stroke-linecap: butt; stroke-dashoffset: 0; stroke-linejoin: miter; stroke-miterlimit: 4; fill: rgb(254,251,251); fill-rule: nonzero; opacity: 1;"  paint-order="stroke"  transform=" translate(-3.845, 4.555000000000001)" d="M 3.85 0.12 C 5.93 0.12 7.4 -1.78 7.4 -4.56 C 7.4 -7.24 6.05 -9.23 3.85 -9.23 C 1.76 -9.23 0.29 -7.35 0.29 -4.56 C 0.29 -1.87 1.64 0.12 3.85 0.12 Z M 3.85 -0.14 C 2.46 -0.14 1.65 -2.02 1.65 -4.56 C 1.65 -7.19 2.54 -8.97 3.85 -8.97 C 5.23 -8.97 6.03 -7.1 6.03 -4.56 C 6.03 -1.94 5.15 -0.14 3.85 -0.14 Z" stroke-linecap="round" />
</g>
</g>
</g>
<g transform="matrix(1.3040252036472477 -1.4107977774452551 1.4107977774452551 1.3040252036472477 351.98931811789583 562.7859414816436)" id="tagline-7dfcb3ca-2c9d-4f44-ba55-5f136b1dd3e1-logo-8"  >
<g style=""  paint-order="stroke"   >
		<g transform="matrix(1 0 0 1 0 0)" id="b64f74b7-c047-492f-9ffc-66a81a3ae18a-path-0"  >
<path style="stroke: none; stroke-width: 0; stroke-dasharray: none; stroke-linecap: butt; stroke-dashoffset: 0; stroke-linejoin: miter; stroke-miterlimit: 4; fill: rgb(254,251,251); fill-rule: nonzero; opacity: 1;"  paint-order="stroke"  transform=" translate(-3.845, 4.555000000000001)" d="M 3.85 0.12 C 5.93 0.12 7.4 -1.78 7.4 -4.56 C 7.4 -7.24 6.05 -9.23 3.85 -9.23 C 1.76 -9.23 0.29 -7.35 0.29 -4.56 C 0.29 -1.87 1.64 0.12 3.85 0.12 Z M 3.85 -0.14 C 2.46 -0.14 1.65 -2.02 1.65 -4.56 C 1.65 -7.19 2.54 -8.97 3.85 -8.97 C 5.23 -8.97 6.03 -7.1 6.03 -4.56 C 6.03 -1.94 5.15 -0.14 3.85 -0.14 Z" stroke-linecap="round" />
</g>
</g>
</g>
<g transform="matrix(0.9117675903084793 -1.691009154870187 1.691009154870187 0.9117675903084794 370.153851725229 537.5696208094984)" id="tagline-7dfcb3ca-2c9d-4f44-ba55-5f136b1dd3e1-logo-9"  >
<g style=""  paint-order="stroke"   >
		<g transform="matrix(1 0 0 1 0 0)" id="c34c2f43-ab69-411c-a531-708c545ba03a-path-0"  >
<path style="stroke: none; stroke-width: 0; stroke-dasharray: none; stroke-linecap: butt; stroke-dashoffset: 0; stroke-linejoin: miter; stroke-miterlimit: 4; fill: rgb(254,251,251); fill-rule: nonzero; opacity: 1;"  paint-order="stroke"  transform=" translate(-3.44, 4.49)" d="M 3.22 -0.14 C 2.47 -0.14 1.72 -0.4 1.09 -0.88 C 0.66 -1.29 0.9 -1.64 1.14 -2.02 L 0.29 -1.27 C 1.05 -0.4 2.15 0.12 3.22 0.12 C 5.15 0.12 6.51 -1.01 6.51 -2.67 C 6.51 -3.94 5.71 -4.95 4.33 -5.3 L 6.59 -9.1 L 1.09 -9.1 L 1.09 -7.55 C 1.37 -8.2 1.6 -8.84 2.87 -8.84 L 5.01 -8.84 L 2.83 -5.19 L 3.22 -5.19 C 4.45 -5.19 5.17 -4.12 5.17 -2.67 C 5.17 -1.17 4.39 -0.14 3.22 -0.14 Z" stroke-linecap="round" />
</g>
</g>
</g>
<g transform="matrix(1.9211538461538462 0 0 1.9211538461538462 263.5164290860519 499.4228816948625)" id="tagline-aa972bb6-df09-4cc1-a477-7de58f49eaec-logo"  >
<g style=""  paint-order="stroke"   >
		<g transform="matrix(1 0 0 1 0 0)" id="tagline-aa972bb6-df09-4cc1-a477-7de58f49eaec-logo-path-0"  >
<filter id="SVGID_47731" y="-20%" height="140%" x="-25.70696082069551%" width="151.41392164139103%" >
	<feGaussianBlur in="SourceAlpha" stdDeviation="0"></feGaussianBlur>
	<feOffset dx="2.000289767653777" dy="0" result="oBlur" ></feOffset>
	<feFlood flood-color="rgb(208,202,183)" flood-opacity="1"/>
	<feComposite in2="oBlur" operator="in" />
	<feMerge>
		<feMergeNode></feMergeNode>
		<feMergeNode in="SourceGraphic"></feMergeNode>
	</feMerge>
</filter>
<path style="stroke: none; stroke-width: 0; stroke-dasharray: none; stroke-linecap: butt; stroke-dashoffset: 0; stroke-linejoin: miter; stroke-miterlimit: 4; fill: rgb(141,22,22); fill-rule: nonzero; opacity: 1;filter: url(#SVGID_47731);"  paint-order="stroke"  transform=" translate(-18.565, 17.68)" d="M 1.04 -0.52 L 1.04 0 L 15.7 0 L 15.7 -0.52 C 13.83 -0.52 11.75 -0.88 11.75 -2.86 L 11.75 -11.39 C 12.69 -12.9 14.4 -14.09 16.38 -15.18 C 19.81 -15.55 23.19 -13.88 23.19 -8.89 L 23.19 -6.24 C 23.19 -1.4 27.09 0.52 31.25 0.52 C 33.75 0.52 35.1 -0.16 36.09 -1.56 C 35.72 -1.61 35.31 -1.92 34.94 -2.39 C 34.84 -1.35 33.96 -0.52 32.81 -0.52 C 30.63 -0.52 30.47 -4.16 30.47 -6.19 L 30.47 -9.98 C 30.47 -15.65 26.16 -17.63 22.05 -17.63 C 21.84 -17.63 21.58 -17.63 21.32 -17.58 C 26 -19.81 30.47 -22.26 30.47 -26.88 C 30.47 -32.76 24.39 -35.88 17.99 -35.88 L 1.04 -35.88 L 1.04 -35.36 C 2.91 -35.36 4.99 -35 4.99 -33.02 L 4.99 -2.86 C 4.99 -0.88 2.91 -0.52 1.04 -0.52 Z M 11.75 -14.56 L 11.75 -32.19 C 13.36 -33.44 14.87 -33.8 16.48 -33.8 C 20.44 -33.8 23.24 -30.26 23.24 -26.88 C 23.24 -19.66 15.65 -18.1 11.75 -14.56 Z" stroke-linecap="round" />
</g>
</g>
</g>
<g transform="matrix(1.9211538461538462 0 0 1.9211538461538462 602.5918083382525 577.1016513932718)" id="tagline-47e4ba6e-68b3-4cf3-846c-0eff6c501f3a-logo"  >
<g style=""  paint-order="stroke"   >
		<g transform="matrix(1 0 0 1 0 0)" id="tagline-47e4ba6e-68b3-4cf3-846c-0eff6c501f3a-logo-path-0"  >
<path style="stroke: none; stroke-width: 0; stroke-dasharray: none; stroke-linecap: butt; stroke-dashoffset: 0; stroke-linejoin: miter; stroke-miterlimit: 4; fill: rgb(141,22,22); fill-rule: nonzero; opacity: 1;"  paint-order="stroke"  transform=" translate(-69.11, 8.35)" d="M 0.53 0 L 7.82 0 C 11.5 0 13.99 -2.02 13.99 -4.54 C 13.99 -6.17 12.65 -7.63 9.62 -8.59 C 11.3 -9.5 12.55 -10.75 12.55 -12.6 C 12.55 -14.9 10.06 -16.8 6.38 -16.8 L 0.53 -16.8 C 1.32 -16.46 2.11 -16.18 2.11 -14.62 L 2.11 -2.18 C 2.11 -0.62 1.32 -0.34 0.53 0 Z M 7.82 -0.48 L 4.51 -0.48 L 4.51 -6.6 C 5.9 -7.06 7.44 -7.56 8.76 -8.16 C 10.44 -7.58 11.47 -6.41 11.47 -4.54 C 11.47 -2.11 10.1 -0.48 7.82 -0.48 Z M 4.51 -7.3 L 4.51 -16.32 L 6.38 -16.32 C 8.83 -16.32 10.03 -14.76 10.03 -12.6 C 10.03 -9.17 7.42 -8.23 4.51 -7.3 Z M 26.09 -14.62 L 26.09 -5.23 C 26.09 -1.94 28.3 0.34 32.62 0.34 C 36.05 0.34 38.09 -1.61 38.09 -5.23 L 38.09 -14.62 C 38.09 -16.18 38.88 -16.46 39.67 -16.8 L 36.02 -16.8 C 36.82 -16.46 37.61 -16.18 37.61 -14.62 L 37.61 -5.23 C 37.61 -1.9 35.76 -0.14 32.62 -0.14 C 29.93 -0.14 28.49 -1.92 28.49 -5.23 L 28.49 -14.62 C 28.49 -16.18 29.28 -16.46 30.07 -16.8 L 24.5 -16.8 C 25.3 -16.46 26.09 -16.18 26.09 -14.62 Z M 58.58 0 L 64.39 0 C 63.6 -0.34 62.47 -0.53 61.61 -1.82 L 58.08 -7.1 C 60.36 -8.18 62.21 -9.65 62.21 -12.19 C 62.21 -14.69 59.83 -16.8 56.04 -16.8 L 50.18 -16.8 C 50.98 -16.46 51.77 -16.18 51.77 -14.62 L 51.77 -2.18 C 51.77 -0.62 50.98 -0.34 50.18 0 L 55.75 0 C 54.96 -0.34 54.17 -0.62 54.17 -2.18 L 54.17 -5.57 L 55.97 -6.22 L 58.94 -1.8 C 59.81 -0.53 59.38 -0.34 58.58 0 Z M 54.17 -6.31 L 54.17 -16.32 L 56.04 -16.32 C 58.27 -16.32 59.69 -14.74 59.69 -12.19 C 59.69 -8.47 57.07 -7.37 54.17 -6.31 Z M 82.2 0.22 C 83.54 0.22 84.91 -0.24 86.06 -1.01 C 86.5 -0.38 87.17 -0.02 87.94 0 L 89.59 0.02 C 88.8 -0.34 88.01 -0.62 88.01 -2.18 L 88.01 -8.16 L 83.23 -8.16 C 84.43 -7.66 85.61 -7.22 85.61 -4.9 L 85.61 -3.22 C 85.39 -1.1 83.93 -0.26 82.2 -0.26 C 78.43 -0.26 76.22 -3.72 76.22 -8.42 C 76.22 -13.27 78.58 -16.56 81.96 -16.56 C 82.87 -16.56 83.74 -16.42 84.5 -16.13 C 85.46 -15.6 85.18 -14.9 84.89 -14.14 L 85.9 -15.46 L 86.14 -15.79 C 84.96 -16.58 83.54 -17.04 81.96 -17.04 C 77.14 -17.04 73.7 -13.56 73.7 -8.42 C 73.7 -3.46 76.92 0.22 82.2 0.22 Z M 100.1 0 L 111.6 0 L 112.97 -2.74 C 111.94 -1.85 110.83 -0.48 108.34 -0.48 L 104.09 -0.48 L 104.09 -8.16 L 107.26 -8.16 C 108.82 -8.16 109.1 -7.37 109.44 -6.58 L 109.44 -10.22 C 109.1 -9.43 108.82 -8.64 107.26 -8.64 L 104.09 -8.64 L 104.09 -16.32 L 108.58 -16.32 C 110.9 -16.32 111.34 -15.14 111.84 -13.94 L 111.84 -16.8 L 100.1 -16.8 C 100.9 -16.46 101.69 -16.18 101.69 -14.62 L 101.69 -2.18 C 101.69 -0.62 100.9 -0.34 100.1 0 Z M 131.88 0 L 137.69 0 C 136.9 -0.34 135.77 -0.53 134.9 -1.82 L 131.38 -7.1 C 133.66 -8.18 135.5 -9.65 135.5 -12.19 C 135.5 -14.69 133.13 -16.8 129.34 -16.8 L 123.48 -16.8 C 124.27 -16.46 125.06 -16.18 125.06 -14.62 L 125.06 -2.18 C 125.06 -0.62 124.27 -0.34 123.48 0 L 129.05 0 C 128.26 -0.34 127.46 -0.62 127.46 -2.18 L 127.46 -5.57 L 129.26 -6.22 L 132.24 -1.8 C 133.1 -0.53 132.67 -0.34 131.88 0 Z M 127.46 -6.31 L 127.46 -16.32 L 129.34 -16.32 C 131.57 -16.32 132.98 -14.74 132.98 -12.19 C 132.98 -8.47 130.37 -7.37 127.46 -6.31 Z" stroke-linecap="round" />
</g>
</g>
</g>
</svg>